<?xml version="1.0" encoding="utf-8"?>
<!-- Generator: Adobe Illustrator 19.1.0, SVG Export Plug-In . SVG Version: 6.00 Build 0)  -->
<svg version="1.1" id="图层_1" xmlns="http://www.w3.org/2000/svg" xmlns:xlink="http://www.w3.org/1999/xlink" x="0px" y="0px"
	 viewBox="25 26 150 50" style="enable-background:new 25 26 150 50;" xml:space="preserve">
<style type="text/css">
	.st0{fill:#BFF4F7;}
	.st1{fill:#2494FA;}
	.st2{fill:#FFCE00;}
	.st3{fill:#FF8500;}
	.st4{fill:#F2449C;}
	.st5{fill:#F44243;}
</style>
<g>
	<path class="st0" d="M26.2,45.7l4.2-0.7v4.4h5.1v3.5h-5.1v5.2c0,0.9,0.2,1.6,0.5,2.1s0.9,0.8,1.9,0.8c0.5,0,0.9-0.1,1.4-0.1
		c0.5-0.1,0.9-0.2,1.3-0.4l0.6,3.3c-0.5,0.2-1.1,0.4-1.7,0.5c-0.6,0.2-1.4,0.2-2.3,0.2c-1.2,0-2.1-0.2-2.9-0.5
		c-0.7-0.3-1.4-0.7-1.8-1.3c-0.5-0.6-0.8-1.3-0.9-2c-0.2-0.8-0.3-1.7-0.3-2.6C26.2,58.2,26.2,45.7,26.2,45.7z"/>
	<rect x="133.2" y="49.6" class="st0" width="2.8" height="14.4"/>
	<rect x="111.2" y="49.3" class="st0" width="2.8" height="14.4"/>
	<path class="st1" d="M174.1,65.5H30.8c-0.3,0-0.5-0.2-0.5-0.5v-0.3c0-0.3,0.2-0.5,0.5-0.5h143.3c0.3,0,0.6,0.1,0.6,0.4
		c0,0,0,0.4,0,0.5C174.7,65.3,174.4,65.5,174.1,65.5z"/>
	<path class="st1" d="M165.9,68.2H39c-0.3,0-0.5-0.2-0.5-0.5v-0.3c0-0.3,0.2-0.5,0.5-0.5h126.9c0.3,0,0.5,0.2,0.5,0.5v0.3
		C166.5,68,166.2,68.2,165.9,68.2z"/>
	<ellipse class="st0" cx="149.9" cy="55.5" rx="8.7" ry="7.7"/>
	<path class="st1" d="M76.9,56.2c0-1.4-0.2-2.4-0.5-3s-0.9-0.9-1.8-0.9c-0.3,0-0.5,0-0.8,0.1s-0.6,0.1-0.8,0.1v11.9h-4.2v-15
		c0.4-0.1,0.8-0.2,1.3-0.3s1-0.2,1.5-0.3s1.1-0.2,1.7-0.2c0.6-0.1,1.1-0.1,1.7-0.1c1.1,0,1.9,0.2,2.6,0.4c0.7,0.3,1.2,0.6,1.7,1
		c0.6-0.5,1.3-0.8,2.1-1c0.8-0.3,1.5-0.4,2.1-0.4c1.2,0,2.1,0.2,2.9,0.5c0.8,0.4,1.4,0.8,1.8,1.5c0.4,0.7,0.8,1.4,0.9,2.3
		c0.2,0.8,0.3,1.8,0.3,2.9v8.7h-4.2v-8.2c0-1.4-0.2-2.4-0.5-3s-0.9-0.9-1.8-0.9c-0.2,0-0.5,0.1-0.9,0.2c-0.4,0.1-0.7,0.3-1,0.4
		c0.2,0.5,0.2,0.9,0.3,1.4s0.1,1,0.1,1.6v8.4h-4.2L76.9,56.2z"/>
	<g>
		<path class="st0" d="M118.4,45.7l4.2-0.7v4.4h5.1v3.5h-5.1v5.2c0,0.9,0.2,1.6,0.5,2.1S124,61,125,61c0.5,0,0.9-0.1,1.4-0.1
			c0.5-0.1,0.9-0.2,1.3-0.4l0.6,3.3c-0.5,0.2-1.1,0.4-1.7,0.5c-0.6,0.2-1.4,0.2-2.3,0.2c-1.2,0-2.1-0.2-2.9-0.5
			c-0.7-0.3-1.4-0.7-1.8-1.3c-0.5-0.6-0.8-1.3-0.9-2c-0.1-0.7-0.3-1.7-0.3-2.6L118.4,45.7L118.4,45.7z"/>
		<path class="st1" d="M124.3,65.2c-1.2,0-2.3-0.2-3-0.5c-0.8-0.4-1.5-0.8-2-1.5c-0.5-0.6-0.8-1.4-1-2.3c-0.2-0.8-0.3-1.7-0.3-2.8
			V45.7c0-0.3,0.2-0.5,0.4-0.5l4.2-0.7c0.2,0,0.3,0,0.4,0.1c0.1,0.1,0.2,0.3,0.2,0.4v3.9h4.6c0.3,0,0.5,0.2,0.5,0.5v3.5
			c0,0.3-0.2,0.5-0.5,0.5h-4.6v4.7c0,0.8,0.2,1.4,0.4,1.9c0.2,0.4,0.7,0.5,1.4,0.5c0.4,0,0.8-0.1,1.3-0.1c0.5-0.1,0.8-0.2,1.2-0.3
			c0.2-0.1,0.3-0.1,0.4,0.1c0.2,0.1,0.2,0.2,0.3,0.4l0.6,3.3c0.1,0.3-0.1,0.5-0.3,0.6c-0.5,0.2-1.2,0.4-1.8,0.6
			C126,65.1,125.2,65.2,124.3,65.2z M118.9,46.1v12.1c0,0.9,0.1,1.8,0.3,2.5c0.2,0.7,0.5,1.3,0.8,1.8c0.4,0.5,0.9,0.9,1.6,1.2
			s1.6,0.4,2.7,0.4c0.8,0,1.6-0.1,2.2-0.2c0.4-0.1,0.8-0.2,1.3-0.4l-0.4-2.3c-0.3,0.1-0.5,0.2-0.8,0.2c-0.5,0.1-1,0.2-1.5,0.2
			c-1.2,0-1.9-0.4-2.4-1c-0.4-0.6-0.5-1.4-0.5-2.4V53c0-0.3,0.2-0.5,0.5-0.5h4.6V50h-4.6c-0.3,0-0.5-0.2-0.5-0.5v-3.8L118.9,46.1z"
			/>
	</g>
	<g>
		<path class="st0" d="M161.3,49.9c0.7-0.2,1.6-0.4,2.8-0.6c1.2-0.2,2.3-0.3,3.6-0.3s2.3,0.2,3.1,0.5s1.5,0.8,2,1.4s0.8,1.3,1,2.1
			s0.3,1.8,0.3,2.8v8.4h-4.2v-7.9c0-1.4-0.2-2.3-0.5-2.9c-0.4-0.6-1-0.8-2-0.8c-0.3,0-0.6,0-0.9,0.1s-0.6,0.1-0.9,0.1v11.5h-4.2
			L161.3,49.9L161.3,49.9z"/>
		<path class="st1" d="M174.2,64.8H170c-0.3,0-0.5-0.2-0.5-0.5v-7.9c0-1.6-0.3-2.3-0.5-2.6c-0.3-0.4-0.8-0.6-1.6-0.6
			c-0.3,0-0.6,0-0.9,0.1c-0.2,0-0.3,0-0.4,0.1v11c0,0.3-0.2,0.5-0.5,0.5h-4.2c-0.3,0-0.5-0.2-0.5-0.5V49.9c0-0.2,0.2-0.4,0.4-0.5
			c0.7-0.2,1.7-0.4,2.8-0.6c1.2-0.2,2.4-0.3,3.7-0.3s2.5,0.2,3.4,0.5c0.9,0.4,1.7,0.9,2.2,1.6c0.5,0.7,0.8,1.4,1.1,2.3
			c0.3,1,0.2,1.7,0.2,3v9C174.7,65.2,174.6,64.7,174.2,64.8z M170.4,63.8h3.2v-7.9c0-1-0.1-1.9-0.3-2.7c-0.2-0.7-0.5-1.4-0.9-1.9
			s-1-0.9-1.8-1.3c-0.8-0.3-1.8-0.5-3-0.5s-2.4,0.1-3.5,0.3c-0.9,0.2-1.7,0.3-2.4,0.5v13.5h3.2v-11c0-0.3,0.2-0.5,0.5-0.5
			c0.3-0.1,0.6-0.1,0.9-0.1c0.4-0.1,0.7-0.1,1-0.1c1.2,0,2,0.4,2.5,1.1c0.4,0.7,0.6,1.7,0.6,3.2V63.8z"/>
	</g>
	<g>
		<g>
			<path class="st1" d="M35.3,64.2c-0.5,0.2-1.1,0.4-1.7,0.5c-0.6,0.2-1.4,0.2-2.3,0.2c-1.2,0-2.1-0.2-2.9-0.5
				c-0.7-0.3-1.4-0.7-1.8-1.3c-0.5-0.6-0.8-1.3-0.9-2c-0.2-0.8-0.3-1.7-0.3-2.6V46l1-0.3v12.5c0,0-0.2,4,2,5.4c2.3,1.4,0,0,0,0
				S31,65.6,35.3,64.2"/>
			<path class="st1" d="M31.4,65.5c-1.2,0-2.3-0.2-3-0.5c-0.8-0.4-1.5-0.8-2-1.5c-0.5-0.6-0.8-1.4-1-2.3c-0.2-0.8-0.3-1.7-0.3-2.8
				V46c0-0.2,0.2-0.4,0.4-0.5l1-0.3c0.2-0.1,0.3,0,0.5,0.1s0.2,0.3,0.2,0.4v12.5c0,0.1-0.2,3.8,1.7,5l0.5,0.3
				c0.9,0.5,2.9,1.2,5.9,0.3c0.3-0.1,0.6,0.1,0.6,0.3c0.1,0.3-0.1,0.6-0.3,0.7c-0.5,0.2-1.2,0.4-1.8,0.6
				C33.1,65.4,32.3,65.5,31.4,65.5z M26,59.4c0.1,0.6,0.1,1.2,0.2,1.7c0.2,0.6,0.4,1.2,0.7,1.6C26.3,61.6,26.1,60.3,26,59.4z
				 M26,46.4v11.8l0,0V46.4z"/>
		</g>
		<path class="st1" d="M32.4,65.2c-1.2,0-2.3-0.2-3-0.5c-0.8-0.4-1.5-0.8-2-1.5c-0.5-0.6-0.8-1.4-1-2.3c-0.2-0.8-0.3-1.7-0.3-2.8
			V45.7c0-0.3,0.2-0.5,0.4-0.5l4.2-0.7c0.2,0,0.3,0,0.4,0.1s0.2,0.3,0.2,0.4v3.9h4.6c0.3,0,0.5,0.2,0.5,0.5v3.5
			c0,0.3-0.2,0.5-0.5,0.5h-4.6v4.7c0,0.8,0.2,1.4,0.4,1.9c0.2,0.4,0.7,0.5,1.4,0.5c0.4,0,0.8-0.1,1.3-0.1c0.5-0.1,0.8-0.2,1.2-0.3
			c0.2-0.1,0.3-0.1,0.4,0.1c0.2,0.1,0.2,0.2,0.3,0.4l0.6,3.3c0.1,0.3-0.1,0.5-0.3,0.6c-0.5,0.2-1.2,0.4-1.8,0.6
			C34.1,65.1,33.3,65.2,32.4,65.2z M27,46.1v12.1c0,0.9,0.1,1.8,0.3,2.5c0.2,0.7,0.5,1.3,0.8,1.8c0.4,0.5,0.9,0.9,1.6,1.2
			s1.6,0.4,2.7,0.4c0.8,0,1.6-0.1,2.2-0.2c0.4-0.1,0.8-0.2,1.3-0.4l-0.4-2.3c-0.3,0.1-0.5,0.2-0.8,0.2c-0.5,0.1-1,0.2-1.5,0.2
			c-1.2,0-1.9-0.4-2.4-1c-0.4-0.6-0.5-1.4-0.5-2.4V53c0-0.3,0.2-0.5,0.5-0.5h4.6V50h-4.6c-0.3,0-0.5-0.2-0.5-0.5v-3.8L27,46.1z"/>
		<rect x="26.3" y="48.9" class="st1" width="4.4" height="1"/>
		<rect x="26.3" y="47" class="st1" width="4.4" height="1"/>
		<rect x="26.3" y="54.3" class="st1" width="4.4" height="1"/>
		<rect x="26.3" y="56.2" class="st1" width="4.4" height="1"/>
		<rect x="26.3" y="58.2" class="st1" width="4.4" height="1"/>
		<rect x="26.3" y="60.1" class="st1" width="5.1" height="1"/>
		<rect x="26.3" y="62.2" class="st1" width="9.7" height="1"/>
		<rect x="26.3" y="50.7" class="st1" width="9.5" height="0.9"/>
		<polygon class="st1" points="35.3,53.4 26.3,53.4 26.3,52.4 35.3,52.4 		"/>
	</g>
	<path class="st2" d="M64.9,48.6H53.6c-0.3,0-0.6,0.2-0.6,0.5v3.4v11l0,0c0,0.3,0.3,0.7,0.6,0.7h11.5c0.3,0,0.4-0.4,0.4-0.7v-14
		C65.5,49,65.4,48.6,64.9,48.6z M60.9,59.5h-3.1v-6.3h3.1V59.5z"/>
	<path class="st3" d="M68.8,63.7V49.1c0-0.3,0.3-0.6,0.6-0.6h3.4c0.3,0,0.6,0.3,0.6,0.6v14.6c0,0.3-0.3,0.6-0.6,0.6h-3.4
		C69,64.3,68.8,64,68.8,63.7z"/>
	<path class="st4" d="M50.2,59c0.5,0,0.7-0.4,0.7-0.8v-9c0-0.3-0.4-0.6-0.7-0.6H49h-1.4h-7.8c-0.4,0-0.4,0.3-0.4,0.6v3.4
		c0,0.3,0,0.7,0.3,0.7h7.5v2.1H40c-0.6,0-0.6,0.4-0.6,0.6v7.7c0,0.3,0,0.6,0.3,0.6h10.5c0.3,0,0.7-0.3,0.7-0.6v-2.6
		c0-0.5-0.3-0.5-0.7-0.5h-6.6V59L50.2,59z"/>
	<g>
		<g>
			<path class="st1" d="M115,43.9c0,0.8-0.3,1.4-0.7,1.8c-0.5,0.4-1.1,0.7-1.8,0.7c-0.7,0-1.3-0.2-1.8-0.7c-0.5-0.4-0.7-1-0.7-1.8
				s0.3-1.4,0.7-1.8c0.5-0.4,1.1-0.7,1.8-0.7c0.7,0,1.3,0.2,1.8,0.7C114.7,42.5,115,43.1,115,43.9z"/>
			<path class="st1" d="M112.4,46.9c-0.8,0-1.5-0.3-2.1-0.8c-0.6-0.5-0.9-1.3-0.9-2.2s0.3-1.7,0.9-2.2c0.6-0.5,1.3-0.8,2.1-0.8
				c0.8,0,1.5,0.3,2.1,0.8c0.6,0.5,0.9,1.3,0.9,2.2s-0.3,1.7-0.9,2.2C114,46.6,113.2,46.9,112.4,46.9z M112.4,41.9
				c-0.6,0-1,0.2-1.4,0.5c-0.4,0.4-0.6,0.8-0.6,1.4c0,0.6,0.2,1.1,0.6,1.4c0.4,0.4,0.9,0.5,1.4,0.5c0.6,0,1-0.2,1.4-0.5
				c0.4-0.4,0.6-0.8,0.6-1.4c0-0.6-0.2-1.1-0.6-1.4C113.4,42.1,113,41.9,112.4,41.9z"/>
		</g>
		<path class="st1" d="M114.5,64.8h-4.2c-0.3,0-0.5-0.2-0.5-0.5V49.4c0-0.3,0.2-0.5,0.5-0.5h4.2c0.3,0,0.5,0.2,0.5,0.5v14.9
			C115.1,64.6,114.9,64.8,114.5,64.8z M110.9,63.8h3.2V49.9h-3.2V63.8z"/>
		<rect x="110.3" y="50.8" class="st1" width="4.2" height="0.9"/>
		<rect x="110.3" y="52.6" class="st1" width="4.2" height="0.9"/>
		<rect x="110.3" y="54.3" class="st1" width="4.2" height="0.9"/>
		<rect x="110.3" y="56.1" class="st1" width="4.2" height="0.9"/>
		<rect x="110.3" y="57.9" class="st1" width="4.2" height="0.9"/>
		<rect x="110.3" y="59.7" class="st1" width="4.2" height="0.9"/>
		<rect x="110.3" y="61.5" class="st1" width="4.2" height="0.9"/>
		<rect x="110.3" y="63.2" class="st1" width="4.2" height="0.9"/>
		<rect x="110.9" y="49.6" class="st1" width="0.8" height="14.9"/>
	</g>
	<g>
		<g>
			<path class="st1" d="M136.7,43.9c0,0.8-0.3,1.4-0.7,1.8c-0.5,0.4-1.1,0.7-1.8,0.7s-1.3-0.2-1.8-0.7c-0.5-0.4-0.7-1-0.7-1.8
				s0.3-1.4,0.7-1.8c0.5-0.4,1.1-0.7,1.8-0.7s1.3,0.2,1.8,0.7C136.5,42.5,136.7,43.1,136.7,43.9z"/>
			<path class="st1" d="M134.2,46.9c-0.8,0-1.5-0.3-2.1-0.8s-0.9-1.3-0.9-2.2s0.3-1.7,0.9-2.2c0.6-0.5,1.3-0.8,2.1-0.8
				s1.5,0.3,2.1,0.8s0.9,1.3,0.9,2.2s-0.3,1.7-0.9,2.2C135.7,46.6,135,46.9,134.2,46.9z M134.2,41.9c-0.6,0-1,0.2-1.4,0.5
				c-0.4,0.4-0.6,0.8-0.6,1.4c0,0.6,0.2,1.1,0.6,1.4c0.4,0.4,0.9,0.5,1.4,0.5c0.6,0,1-0.2,1.4-0.5c0.4-0.4,0.6-0.8,0.6-1.4
				c0-0.6-0.2-1.1-0.6-1.4C135.2,42.1,134.7,41.9,134.2,41.9z"/>
		</g>
		<path class="st1" d="M136.3,64.8h-4.2c-0.3,0-0.5-0.2-0.5-0.5V49.4c0-0.3,0.2-0.5,0.5-0.5h4.2c0.3,0,0.5,0.2,0.5,0.5v14.9
			C136.8,64.6,136.6,64.8,136.3,64.8z M132.6,63.8h3.2V49.9h-3.2V63.8z"/>
		<rect x="132.1" y="50.8" class="st1" width="4.2" height="0.9"/>
		<rect x="132.1" y="52.6" class="st1" width="4.2" height="0.9"/>
		<rect x="132.1" y="54.3" class="st1" width="4.2" height="0.9"/>
		<rect x="132.1" y="56.1" class="st1" width="4.2" height="0.9"/>
		<rect x="132.1" y="57.9" class="st1" width="4.2" height="0.9"/>
		<rect x="132.1" y="59.7" class="st1" width="4.2" height="0.9"/>
		<rect x="132.1" y="61.5" class="st1" width="4.2" height="0.9"/>
		<rect x="132.1" y="63.2" class="st1" width="4.2" height="0.9"/>
		<rect x="132.6" y="49.6" class="st1" width="0.8" height="14.9"/>
	</g>
	<path class="st1" d="M149.3,46.4c-5.1,0-9.3,4.2-9.3,9.3s4.2,9.3,9.3,9.3s9.3-4.2,9.3-9.3S154.5,46.4,149.3,46.4z M142.1,55.7
		c0-3.5,2.6-6.4,5.7-7.1v7.5c0,0.1,0.1,0.1,0.1,0.2l3.8,6.3c-0.7,0.3-1.5,0.4-2.4,0.4C145.3,62.9,142.1,59.7,142.1,55.7z M152.8,62
		l-2.6-6.3l-0.3-7.2c3.7,0.3,6.6,3.4,6.6,7.2C156.5,58.4,155,60.8,152.8,62z"/>
	<circle class="st1" cx="149.1" cy="56" r="1.7"/>
	<g>
		<path class="st2" d="M86.6,43.2h-4.1c-0.2,0-0.3-0.2-0.3-0.3v-0.5c0-0.2,0.2-0.3,0.3-0.3h4.1c0.2,0,0.3,0.2,0.3,0.3v0.5
			C86.9,43,86.8,43.2,86.6,43.2z"/>
		<path class="st2" d="M84.1,44.7v-4.1c0-0.2,0.2-0.3,0.3-0.3h0.5c0.2,0,0.3,0.2,0.3,0.3v4.1c0,0.2-0.2,0.3-0.3,0.3h-0.5
			C84.2,44.9,84.1,44.8,84.1,44.7z"/>
	</g>
	<g>
		<path class="st4" d="M164.1,39.9H160c-0.2,0-0.3-0.2-0.3-0.3v-0.5c0-0.2,0.2-0.3,0.3-0.3h4.1c0.2,0,0.3,0.2,0.3,0.3v0.5
			C164.4,39.8,164.3,39.9,164.1,39.9z"/>
		<path class="st4" d="M161.5,41.4v-4.1c0-0.2,0.2-0.3,0.3-0.3h0.5c0.2,0,0.3,0.2,0.3,0.3v4.1c0,0.2-0.2,0.3-0.3,0.3h-0.5
			C161.6,41.7,161.5,41.6,161.5,41.4z"/>
	</g>
	<g>
		<path class="st1" d="M57.8,34.6h-2.3c-0.1,0-0.2-0.1-0.2-0.2v-0.3c0-0.1,0.1-0.2,0.2-0.2h2.3c0.1,0,0.2,0.1,0.2,0.2v0.3
			C58,34.4,57.9,34.6,57.8,34.6z"/>
		<path class="st1" d="M56.4,35.4v-2.3c0-0.1,0.1-0.2,0.2-0.2h0.3c0.1,0,0.2,0.1,0.2,0.2v2.3c0,0.1-0.1,0.2-0.2,0.2h-0.3
			C56.4,35.5,56.4,35.5,56.4,35.4z"/>
	</g>
	<circle class="st1" cx="171.3" cy="43.7" r="1.1"/>
	<circle class="st2" cx="123.6" cy="36.9" r="1.1"/>
	<path class="st2" d="M51.9,44c-0.7,0-1.4-0.6-1.4-1.4c0-0.7,0.6-1.4,1.4-1.4s1.4,0.6,1.4,1.4S52.7,44,51.9,44z M51.9,41.7
		c-0.5,0-0.8,0.4-0.8,0.8s0.4,0.8,0.8,0.8c0.5,0,0.8-0.4,0.8-0.8C52.8,42.1,52.4,41.7,51.9,41.7z"/>
	<path class="st2" d="M139.9,34c-0.7,0-1.4-0.6-1.4-1.4c0-0.7,0.6-1.4,1.4-1.4c0.7,0,1.4,0.6,1.4,1.4C141.2,33.4,140.6,34,139.9,34z
		 M139.9,31.8c-0.5,0-0.8,0.4-0.8,0.8c0,0.5,0.4,0.8,0.8,0.8c0.5,0,0.8-0.4,0.8-0.8S140.3,31.8,139.9,31.8z"/>
	<circle class="st1" cx="78.1" cy="32.7" r="1.1"/>
	<circle class="st3" cx="68.7" cy="40" r="1.1"/>
	<circle class="st4" cx="35.2" cy="40.5" r="1.1"/>
	<path class="st4" d="M149.8,41.9c-0.7,0-1.4-0.6-1.4-1.4s0.6-1.4,1.4-1.4s1.4,0.6,1.4,1.4S150.6,41.9,149.8,41.9z M149.8,39.6
		c-0.5,0-0.8,0.4-0.8,0.8c0,0.5,0.4,0.8,0.8,0.8s0.8-0.4,0.8-0.8C150.7,40,150.3,39.6,149.8,39.6z"/>
	<path class="st5" d="M106.9,35.1c-0.7,0-1.4-0.6-1.4-1.4c0-0.8,0.6-1.4,1.4-1.4c0.7,0,1.4,0.6,1.4,1.4
		C108.3,34.5,107.6,35.1,106.9,35.1z M106.9,32.8c-0.5,0-0.8,0.4-0.8,0.8c0,0.5,0.4,0.8,0.8,0.8c0.4,0,0.8-0.4,0.8-0.8
		C107.7,33.2,107.4,32.8,106.9,32.8z"/>
	<path class="st5" d="M105.2,48.6h-2.3h-1.1h-4.2v-4.7h1.9l0,0h5c0.5,0,1-0.4,1-0.9v-2.9c0-0.5-0.5-0.9-1-0.9H103h-3.5h-5.8
		c-0.3,0-0.8,0.4-0.8,0.7v3.2v0.1v5.9v3.4v7.6v3.4l0,0c0,0.3,0.5,0.7,0.8,0.7h3.4c0.1,0,0.1,0,0.1,0h4.5c0.1,0,0.1,0,0.1,0h3.4
		c0.3,0,0.7-0.4,0.7-0.7V49.1C105.9,48.8,105.5,48.6,105.2,48.6z M101.2,59.6h-3.7v-6.3h3.7V59.6z"/>
	<rect x="161.3" y="49.9" class="st1" width="1.7" height="14.4"/>
	<rect x="162.1" y="50.4" class="st1" width="10.6" height="0.9"/>
	<rect x="162.1" y="52" class="st1" width="11.7" height="1"/>
	<rect x="162.1" y="54.4" class="st1" width="3.5" height="1"/>
	<rect x="169.7" y="54.4" class="st1" width="4.5" height="1"/>
	<rect x="162.1" y="56.7" class="st1" width="3.5" height="1"/>
	<rect x="169.7" y="56.7" class="st1" width="4.5" height="1"/>
	<rect x="162.1" y="58.8" class="st1" width="3.5" height="1"/>
	<rect x="169.7" y="58.8" class="st1" width="4.5" height="1"/>
	<rect x="162.1" y="61" class="st1" width="3.5" height="1"/>
	<rect x="169.7" y="61" class="st1" width="4.5" height="1"/>
	<rect x="162.1" y="63.2" class="st1" width="3.5" height="1"/>
	<rect x="169.7" y="63.2" class="st1" width="4.5" height="1"/>
</g>
</svg>
